<svg width="33" height="32" viewBox="0 0 33 32" fill="none" xmlns="http://www.w3.org/2000/svg">
<g id="Iconsax/Bold/cards">
<path id="Vector" d="M20.7934 8.73334H8.20669C7.83335 8.73334 7.48669 8.74667 7.16669 8.76C4.00669 8.94667 3.16669 10.1067 3.16669 13.7067V14.48C3.16669 15.2133 3.76669 15.8133 4.50002 15.8133H24.5C25.2334 15.8133 25.8334 15.2133 25.8334 14.48V13.7067C25.8334 9.73334 24.82 8.73334 20.7934 8.73334ZM4.50002 17.8133C3.76669 17.8133 3.16669 18.4133 3.16669 19.1467V23.0267C3.16669 27 4.18002 28 8.20669 28H20.7934C24.7534 28 25.7934 27.04 25.8334 23.24V19.1467C25.8334 18.4133 25.2334 17.8133 24.5 17.8133H4.50002ZM9.78002 24.7467H7.50002C6.95335 24.7467 6.50002 24.2933 6.50002 23.7467C6.50002 23.2 6.95335 22.7467 7.50002 22.7467H9.79335C10.34 22.7467 10.7934 23.2 10.7934 23.7467C10.7934 24.2933 10.34 24.7467 9.78002 24.7467ZM17.2334 24.7467H12.6467C12.1 24.7467 11.6467 24.2933 11.6467 23.7467C11.6467 23.2 12.1 22.7467 12.6467 22.7467H17.2334C17.4986 22.7467 17.7529 22.852 17.9405 23.0396C18.128 23.2271 18.2334 23.4815 18.2334 23.7467C18.2334 24.0119 18.128 24.2662 17.9405 24.4538C17.7529 24.6413 17.4986 24.7467 17.2334 24.7467Z" fill="#C2C9C6"/>
<path id="Vector_2" d="M29.836 17.776V10.7893C29.836 6.61601 27.4494 4.80267 23.8494 4.80267H11.9427C10.9294 4.80267 10.0227 4.94934 9.22269 5.25601C8.59602 5.48267 8.03602 5.81601 7.58269 6.25601C7.34269 6.48267 7.52935 6.85601 7.87602 6.85601H22.3694C25.3694 6.85601 27.796 9.28267 27.796 12.2827V21.8427C27.796 22.176 28.156 22.3627 28.396 22.1227C29.316 21.1493 29.836 19.7227 29.836 17.776Z" fill="#C2C9C6"/>
</g>
</svg>
