<svg width="33" height="32" viewBox="0 0 33 32" fill="none" xmlns="http://www.w3.org/2000/svg">
<path d="M28.313 11.16L19.073 3.77336C17.6464 2.62669 15.3397 2.62669 13.9264 3.76002L4.68637 11.16C3.64637 11.9867 2.9797 13.7334 3.20637 15.04L4.9797 25.6534C5.2997 27.5467 7.11304 29.08 9.03304 29.08H23.9664C25.873 29.08 27.6997 27.5334 28.0197 25.6534L29.793 15.04C30.0064 13.7334 29.3397 11.9867 28.313 11.16ZM16.4997 20.6667C15.6156 20.6667 14.7678 20.3155 14.1427 19.6904C13.5176 19.0653 13.1664 18.2174 13.1664 17.3334C13.1664 16.4493 13.5176 15.6015 14.1427 14.9763C14.7678 14.3512 15.6156 14 16.4997 14C17.3838 14 18.2316 14.3512 18.8567 14.9763C19.4818 15.6015 19.833 16.4493 19.833 17.3334C19.833 18.2174 19.4818 19.0653 18.8567 19.6904C18.2316 20.3155 17.3838 20.6667 16.4997 20.6667Z" fill="#4DA57E"/>
</svg>
