<svg width="33" height="32" viewBox="0 0 33 32" fill="none" xmlns="http://www.w3.org/2000/svg">
<path d="M21.54 2.66669H11.46C6.42002 2.66669 5.16669 4.01335 5.16669 9.38669V24.4C5.16669 27.9467 7.11335 28.7867 9.47335 26.2534L9.48669 26.24C10.58 25.08 12.2467 25.1734 13.1934 26.44L14.54 28.24C15.62 29.6667 17.3667 29.6667 18.4467 28.24L19.7934 26.44C20.7534 25.16 22.42 25.0667 23.5134 26.24C25.8867 28.7734 27.82 27.9334 27.82 24.3867V9.38669C27.8334 4.01335 26.58 2.66669 21.54 2.66669ZM20.5 15.6667H12.5C11.9534 15.6667 11.5 15.2134 11.5 14.6667C11.5 14.12 11.9534 13.6667 12.5 13.6667H20.5C21.0467 13.6667 21.5 14.12 21.5 14.6667C21.5 15.2134 21.0467 15.6667 20.5 15.6667ZM21.8334 10.3334H11.1667C10.62 10.3334 10.1667 9.88002 10.1667 9.33335C10.1667 8.78669 10.62 8.33335 11.1667 8.33335H21.8334C22.38 8.33335 22.8334 8.78669 22.8334 9.33335C22.8334 9.88002 22.38 10.3334 21.8334 10.3334Z" fill="#C2C9C6"/>
</svg>
